<svg id="Layer_1" data-name="Layer 1" xmlns="http://www.w3.org/2000/svg" viewBox="0 0 750.18 1033"><defs><style>.cls-1{fill:#008b76;}</style></defs><path class="cls-1" d="M748,226.88c-29.32,8.28-58.88,14.5-88.06,20.89-72.46,15.89-149.79,27-210.72,54.38,8.72-11.16,18-28,12.15-46.9-4.66-15.09-17.61-26.74-38.16-25.48,6.28-8,12.72-16.41,13.8-30,.65-8.17-.14-15.4-3.12-21.59-7.28-15.07-33-23.66-51.38-12.86,1.05-4.59,3.12-14.69,4.23-17.91,5.21-15.12-2.05-30.9-13.05-36.23-12.25-11.81-37.62-6.14-48.48,4,3.22-18.51-3.52-35.9-15.76-42.84C290,61.3,264,72.25,255.27,87.63c-1.19-3.87-1.27-7.63-1.81-10.8-3.82-22.32-25.89-35-52.69-29.57a23.12,23.12,0,0,0-2.37.85c-15.84,6.37-27.8,20-28.51,40.62-6.36-18.8-32-31.84-56.48-22-18.55,7.47-31,31.38-22.07,56.68-21-12.82-49.48-3.2-60.83,12.27-14.58,19.87-5.2,55.38,12.88,65.84C21.89,206.7,4.1,223.29,7.81,249.71c3.5,24.89,18.87,43.61,50.28,41.87C40.78,306.27,42.21,347,58,360c20,16.55,58.79,9.45,71.28-9.6,1.6,2.55,4.61,4,6.21,7.18,7.45,15.07,32.93,23.91,52.76,13.51,16.69-8.75,29.21-32,20.21-56.07,5.1-3.33,10.19-8.42,14.57-13.94,16.46-20.71,4.24-60.09-14.11-71.23-23.13-14.05-57.48-1.37-69,15.92-1.74,2.62-2.54,1.22-3-.57-8.85-32.7,9.15-57.55,31.43-67.78C191,167,224,168.29,240.93,182.86c-7.2,5.37-10.17,12.25-12.55,18.61-8.14,21.75,6.81,40.53,23.25,45.55-4.93,4.08-7.4,7.84-9.92,11.54-12.32,18,.73,42.62,17.33,48.9-19.17,8.68-34.12,18.91-40.77,36.55-15.53,41.19,7,80.33,37.65,93.09-8.24,5.26-15.76,14.17-18.09,23.83-6.09-2.21-12.14-5.7-18.88-5.76-24.41-.18-39.88,15.93-44.2,36.94-7.77-1.88-17.76-4.1-27.22-1.8-17,4.15-28.84,18.59-29.07,38.82a35.14,35.14,0,0,0-12.81.85c-23.72,5.12-41.5,23.74-37.73,53.49a152.07,152.07,0,0,0-18,5.24c-17.72,6.5-31.76,26.76-24.45,51.71-5.94,1.69-11.88,2.35-16.84,4.5A28.47,28.47,0,0,0,2,649v7.23a28.7,28.7,0,0,1,14.64-9c4.94-1.26,10.65-.64,16.17-3.43-10.18-21.73,2.67-45,19.46-50.6,5.88-1.94,13-2.64,21.39-5.52C69,560.31,84,538.41,106.26,534.52c6.57-1.14,13.22,2.56,18.43.49-2.71-19.18,6.92-32.51,19.67-38.26,10.57-4.77,21.48-1.45,31.11,1.78a3.57,3.57,0,0,0,4.68-3.17c2.46-19.63,15.87-34,36.45-35,9.06-.43,17.14,2.63,21.3,7.71,1.51,1.85,4.61-2.45,5.24-4.38,4.71-14.53,15.71-24.19,30.11-26,14.92-1.92,27.23,2,36.35,11.41,6.85-8.11,12-20.88,22.79-25.27,5.43-2.21,10.17-1.85,14.81-1.77.78,4.88-.84,11.19-7.62,13.56-13.88,4.84-25.75,14.31-25.22,35.4-7.13-18.27-32.33-31.77-51.67-20-9.08,5.53-14.54,17.62-12.59,34.4-8.34-15.64-36.35-20-49.61-8.27-8.87,7.86-11.36,24.06-8.3,38.63C184.54,506,157.82,498,147,511c-11.86,7.6-16.06,30.13-7.34,44.1-10.19-11.5-41.9-14-49.11,2.7-1.6,3.7-4.67,6-5.51,10.34-2.38,12.16,3.39,22.67,9.31,29.41-20.34-7-46.25.23-50.36,19.29-4.49,20.8,8.58,35.1,19.81,44.26-12.58-9.57-41.3-9.63-50.42,4.77-8.79,13.88-3.76,36.14,8.05,44a48.59,48.59,0,0,0-19.41.8v5.23c.64-.09,1.23-.17,1.56-.25,12.68-2.87,28.93-1.23,36.27,5.8-1.07,3.48-3.07,6.34-3.53,11.49-9.63-7.31-27.73-7.18-34.3,1.87A13.18,13.18,0,0,0,1.24,736c-2,3.54-1,6.89.76,10,1.3,2.24,3,4.34,4.33,6.27,3.94,5.8,13.18,7.31,20.15,9.77-1.18,3.63-2.74,6.61-2.64,9.81A81.06,81.06,0,0,1,2,764.29v6.11c.66.45,1.32.9,2,1.29L2,771.88V776a43.68,43.68,0,0,1,20.38,2.31l-2.56,12.11A44,44,0,0,0,2,790.34v5.17a37.58,37.58,0,0,1,4.13-.81,35,35,0,0,1,13,.17l-3.25,20.21A43.57,43.57,0,0,1,2,813.24v6.28c5.12.8,10.69.94,12.7,2.28l-1.57,12.58A92.69,92.69,0,0,1,2,833.58v7.12a26.5,26.5,0,0,1,10.45,2.06c-.94,3.32-.18,7-.87,10.41A29.18,29.18,0,0,0,2,851.49v4.64a44.52,44.52,0,0,1,10.06.77l-1,20.83a31.89,31.89,0,0,1-9.11.36v5.37c2.82.41,5.66.8,8.36,1.37v7.84a78.43,78.43,0,0,1-8.36.59v7.37c2.63,0,5.27.5,8.21.43,1.78,3.4.69,7.78.83,12.11A32.66,32.66,0,0,0,2,912v4.11c3,.31,6.06,1.24,8.94,1.07L12.15,937A39.66,39.66,0,0,1,2,937.41V943c4.46.66,9.61,1.21,11.87,1.52-.44,3.29,1,6.34,1.11,7.35a69.25,69.25,0,0,1-13,1.92v6.48l1.54-.42c4.22-1.15,10.55-1.93,12.06,1.36a48.48,48.48,0,0,1,3,10.62A39,39,0,0,0,2,973.31v4.78c1.44-.52,2.85-.93,4-1.24a2.65,2.65,0,0,0,.89-.54c3.92-.37,7.78-1,11.87-.85,1.7,6.14,3.31,12,3.53,18.23A25.71,25.71,0,0,1,2,994.28v5.78c6.54,2.27,14,2.56,21.87.94,2.18-.44.11,5.36,3,7-6.55,3.27-15.78,5.4-24.83,5.55V1019h.13c2.13-.23,8.47-1.24,10.79-.91A56.85,56.85,0,0,0,2,1025.41v6.34c6.81-6.33,14-12.89,24.81-15,5.12-1,3.45,3.85,4.63,5.37s3.94,5,.17,6.14c-11.45,3.41-23.77,10.37-20.76,25.8,7.87,8.26,26.73,7.25,35.27-.06,1.75,5.65,5.06,8.83,6.73,11.59-12.57,8-34.94,14.59-50.85,6.56v6.46c.29.13.59.25.89.36h39.9A65.17,65.17,0,0,1,56,1071.47c.86-.38,2.49,4.21,5.53,7.53H68.9q-2.66-3.55-5.17-7.18c-35-50.61-51.62-127-44.59-212.66C21.05,757.47,57.33,688.57,103,629.08c50.34-65.54,114.29-119.33,206.46-142.14a404,404,0,0,1,83.19-11.86c74.85-2.64,118.66,33.4,145.85,81.1,20.7,55.48-11.55,103.52-50,120.48-41.38,18.25-89.82-4-101.78-37.42-9.73-16-5.64-41.12,1.39-57.35-3.33-3-6.87,1.14-8.92,3-27.26,24.51-36.64,87.95-20.09,131.49,16.74,44.07,50.54,70.49,74.79,106.33,25.22,37.28,49.82,77.54,50,138.26-4.41,45.25-14.76,85.32-32.36,118.06h20.86c-3.49-2.43-7.39-4.47-10-6.38l4.37-9.82c10.17,1.17,20.47,7.07,26,16.2h5.93a35.82,35.82,0,0,0-12.11-13.72c18.91.35,31.43-10.21,35.32-23.42,6-20.44-5.91-37-23-42.42,20.15-5,36.56-23,29.41-46.07-3.39-10.92-13.6-18.26-26.24-22.69,17.46-6.35,27.82-32.93,14.71-48.86-7.05-8.57-18.69-15.42-34.92-13.76,12.71-7,17.59-31.12,8.3-45.14-6.63-10-22.51-16.59-38.19-12,9.17-9.82,8.43-33.11-2.1-40.68-4.79-7.49-15.27-10-27-6.24,8.55-18.56-.07-38.62-13.53-44.5-5.65-2.46-14.4-2.49-18.11-2.74,1.4-9.06.44-17.47-1.42-25.52,6.09.12,12.25-.39,17.29-3.92-3.36,16.62,4.28,29.5,16.45,32.36,16.81,3.94,30.53-5,34.53-17.87.89-2.88.21-6.9,2.51-9,.41,15.29,8.89,25.5,21.75,28,19,3.75,32.66-6.23,37.39-19.48,2.74-7.65,1-15.7-1.31-22.73,12.86,10.07,37.12,5.05,45.8-5.6,8.93-11,4.46-31.25-5.74-37.58-1.69-1-3.41-2.45-5.75-3.89,20.46,0,33.66-10.53,37.2-26.66.83-3.78,2-6,4.83-7.37,5.06-2.46,3.8,4.82,4.48,8,3.78,17.93-6.75,30-21.59,34.5-1.42.43-6,3.29-3.41,6.51,6.64,8.17,6.23,27.27-1.19,37-7.69,10.06-28.54,14.05-44.57,7.18.11,29-16.66,44.56-43.29,46.37-15.17,1-24.7-9.75-32.57-17.69-3.2,8.09-11.19,14.09-17.15,9.94-1.89-1.32-6.54.09-4,3.19,2.72,3.29,6.41,7.22,7.9,13.32.19.8-.18,7.84-.22,12,10.39-2.65,23.91,1.32,29.08,8.3,6.21,8.39,5.19,25.26.18,37.41,18.92-8.2,34.46,1.81,39.94,13.85,6.42,14.13,1.91,32.26-6.49,42.9,6.16,5.38,16.85,4.22,20.68,11,14.41,8.13,17.83,37,6.11,50.46-2,2.31-8.9,8.28-3.09,10.82,13.35,5.83,21.16,23,16,42.11-3,11.06-9.91,20.67-19.76,24.76-4.27,1.78.2,7,2.65,8.54,16.29,10.12,16.5,44.24,2.19,56-4.17,3.41-9.14,9.09-16.89,7.9a35,35,0,0,1,3.85,7.1H519c-.17-.47-.36-.93-.55-1.4a124.27,124.27,0,0,0,12.45-9c18.21-14.32,14.79-53.42-3.36-65.41a44.77,44.77,0,0,0,19.52-25.65c6.35-20.55-1.27-41.14-16.8-47.86,4.33-7.44,8.9-15,10.25-24,3.75-25.14-10.46-41.53-29.91-47.14,4.73-9.68,9.9-26.54,4.46-39.27-5.9-13.83-16.86-28.59-37.62-24.73.18-3.53,1.41-14.61.69-18.08C475,761.14,464,750.15,444.93,751a20.89,20.89,0,0,0-5.14-15.92c6,.77,10.09-3.79,13.53-6.3a37.87,37.87,0,0,0,30.55,14.45c29-.89,45.76-17.63,49.67-43.37,11,2,24.18.22,32.22-3.56,14.39-6.78,22.93-27.68,15.39-46.56-1.78-4.49,3-5.48,3.77-5.79,17.91-6.81,26.41-30.09,16.94-50.28,42.74-26.2,75.33-61.77,100.43-103.36,30.53-50.55,47.09-114.23,47.87-191.69C750.4,275.13,750.68,249.83,748,226.88ZM37.13,1034.93c1.54,5,6.42,12.79,4.56,14.3-6.93,5.61-17.64,7.14-24.79,2.3-2.95-2-2.26-7.56,1.05-10.17s5.26-7.17,9.85-7.64c.49,0,1.91-.54,2.52-.59C32.65,1033,35.93,1031,37.13,1034.93ZM27.26,756.56c-10.42-.85-18.81-7.52-22-14.79C3.59,738.09,9,736.64,11,734.59a6.9,6.9,0,0,1,1.74-.8c6.92-2.71,16.7,1.87,21,2.93C31.07,742.81,29.71,750.38,27.26,756.56ZM49.6,700.88C42.87,698.23,35.25,695,34,688.94c-1.43-6.88,4.89-10.57,9.59-11.49,5.28-1,11.88-.31,16,4.37Zm13.33-22.55c-7.7-8.35-26.68-10.37-31.32.29-2,4.54-2.72,9.87-1.07,14.46,2.63,7.39,11.29,8,16.45,12.59-1.28,2.74-3.21,5.12-3.38,7.91-14.39-4.68-29.94-13.12-28.84-32.74C15.37,670.09,23,663.52,31,659.5a5.53,5.53,0,0,1,1-.58C47,657.28,58.1,663,67.33,669,66.19,671.84,63.78,674,62.93,678.33Zm19.85-34.39c-6.31-2.87-13-8.73-13.41-16.48-.09-2,2.27-4.15,4.4-5.35,8.24-4.68,17,2,21.48,5.53C92.72,632,87.35,640.72,82.78,643.94ZM98.54,623c-6.38-6.36-24.38-11.63-31.61-2.31-5.12,6.6-1.46,15.84,3.77,20,2,1.61,8.19,6.42,10.34,8.06l-7.38,11.72C58.23,653.57,40.53,631.9,53.23,612c3.88-6.09,10.47-9.06,16.69-10.39,15.76-3.36,28.33,2.52,37.62,10.15C105.78,615.31,101.89,619.58,98.54,623Zm25.93-29.22c-5.9-2.69-12.43-8.51-11-16.25.61-3.21,5.11-4.22,8.36-5.34,5.88-2,11,3.44,14.52,7.57A94.38,94.38,0,0,1,124.47,593.81Zm15.63-17.87c-4.8-8.62-22.54-14.36-29.46-4.15a15.57,15.57,0,0,0-.57,15.87c1.56,3,5.4,5.87,9.32,8.65,2.52,1.79-5.2,10-8,8.16-11.26-7.29-24.6-19.67-18.6-38.15a21.37,21.37,0,0,1,14.31-14c.55-.16,2.13-1.48,3.25-1.45,16.57.41,27.67,8,36.5,17.57C145.73,570.89,144.07,574.24,140.1,575.94Zm38.82-32.58c-2.73,3.71-7.28,5.2-11,8.33-5.08-1.9-8.61-9.08-7.24-13.82.47-1.61,2.76-2.76,4.33-3.76,4.4-2.81,12.34-1,14.65,6C179.67,540.19,182.84,544.41,178.92,543.36Zm5.24-4.94a14,14,0,0,0-8-9.18c-4.7-2-9.95-2.87-14.33,0-4.87,3.22-9.36,9.37-6.07,15.65a49,49,0,0,0,7.48,10.79c-3.55,2.35-7.37,7.61-9.42,6.27-11.11-7.25-18-29.73-7.52-41.83,4.07-4.69,8.69-9.43,15.55-10.29,16.31-2,26.53,10.2,34.31,21.85C197.16,533.22,188.65,536.37,184.16,538.42Zm45.35-27.5c-2.44,1-5.21,5.22-7.39,3.92-5.38-3.19-8.36-12.88-2-17.32a16,16,0,0,1,1.57-.91c6.4-2.76,15.45-1.77,18.09,5.22C242.2,508.12,234.13,509.11,229.51,510.92ZM245,502.05c-3.55-5.09-6.64-11-13.31-12.33-9.82-2-17.5,3.88-20.15,12-1.44,4.41,1,12,4.55,16.8-3.3,3.76-8,4.8-10.78,7.83C194.71,517.68,193.22,491,205,482c2.67-2,5.45-4.28,9.35-5.53,17.11-5.46,29.78,6,35.7,16.87,1.14,2.09,2.65,4.14,3,6.12C250.22,501.15,246.87,504.69,245,502.05Zm46.28-15.78c-6.53-.41-14.16,6.59-17.1,1.2-2.2-4-2.12-9.14.75-12.41.89-1,3.64-4.53,4.85-4.87,3.75-1.06,8.19,1.74,10.13,5.43C291.06,477.77,299.9,486.81,291.31,486.27Zm7.18-6.55c-2.24-8.85-12.49-17.57-23.14-13.11-9,3.73-9.18,18.53-5.69,24.66-2.94,4.31-9,7.21-11.67,2.08-7.27-13.85-1.1-34,9.27-39.26a16.23,16.23,0,0,1,5.28-1.66c21.69-2.36,35.62,10.54,39.59,27.08C308.51,479.7,300.5,487.63,298.49,479.72ZM427.21,685.28c.18-.46,1.23-1.09,1.08-1.14,4.25,1.45,13.59-1.3,10.92,7.17-1.54,4.9-5.6,9.61-9.38,8.29C424.55,697.75,425.35,689.93,427.21,685.28ZM387.72,655.5c2.4,3.6,7.7,7.84,11.1,12-3.64,3.12-9.66,5-12.31,2.16C382.57,665.54,383.73,658.69,387.72,655.5ZM374.6,599.41a3.37,3.37,0,0,1,1.54-1.35c-1.86,11.55-1.79,29.4,3.45,39.74-7.85,8.38-14,24.46-9.31,37.74-6.53.26-15.54-.53-15.13-10.19A138.92,138.92,0,0,1,374.6,599.41ZM363.11,706.54c-3.43-2.25-5.08-7.1-3.68-8,4.45-2.74,12.12-2.09,11.59,4.7a11.6,11.6,0,0,1-3.81,8C362.85,714.84,362.53,708.64,363.11,706.54Zm2.31,10.7c6.76-2.46,13.21-11,9.62-20.69-2-5.36-11.47-5.41-17.78-4.5,2.44-4.92-1.5-7.2.23-12.55,10.35-1.55,23.24,5.58,26.59,14.52,3.26,8.65,2.92,18.69-2.49,24.93-2.43,2.8-7.33,5.22-12,7.3C368.9,724.1,364.9,721.06,365.42,717.24Zm26.73,44.21c-5-4.85-9.81-9.54-11.46-15.59,1.68-1.26,3.87-1.09,5.61-2.41,2.47-1.87,6.05-1.52,8.65-.66,5.34,1.77,7.11,10.09,3.24,13.4C396,758.09,393.26,762.53,392.15,761.45Zm36.63,41.76c-3.39,1.3-9.45-7.54-12.72-12.65-1.19-1.85,4.42-2.95,6.67-3.93,3.56-1.54,8.56-.59,10.69,3.29C435.76,794.17,434.05,801.21,428.78,803.21Zm32.36,50.16c-5.28-.57-7.45-10.7-10.35-16.32a11.68,11.68,0,0,1,3.76-1.49c4.82-1.38,11.43-.26,13,5.9C468.8,846.27,466.25,853.92,461.14,853.37Zm21.36,57.87-4.15-17.08c.28-.14,1.23-.64,1.56-.75,4.88-1.71,12.34-2.25,15.13,3.12,2.14,4.14,3.23,11.62-2.32,14.55C489.31,912.87,485,911.43,482.5,911.24Zm-2.94,112.32c-.17-4.32,3.61-2.59,5.48-2.42,5.73.52,12.38,4.4,13.17,11.29a6.84,6.84,0,0,1-3.41,6.54,17.78,17.78,0,0,1-18.47-.26C477.16,1033.93,479.77,1028.79,479.56,1023.56Zm36.91-.64c4.47,14.23-1.85,27.62-12,32.25-6.69,5.75-22.94,6.13-32.12,2.23-1.61-.68-3.33-1.32-2.42-3.46,1.36-3.17,3.23-6.59,3.77-10.46,9.16,5.07,20.65,3.58,27.4-1.35,4-11-.3-23.18-9.34-25-3-.61-5.78-1.4-9.54-1.11-.8-3.41,1.18-8.92.47-12.56-.52-2.68,2.7-3.65,3.38-.7C502.17,1001.76,512.6,1010.57,516.47,1022.92Zm6.91-65.39c4,19.19-9.11,30.48-22.05,35.84-5.37,2.23-12,1.84-16.81,4.73,1.14-5.46,3.55-11.27,3.52-18.72,9.52,1.42,21.12-4.11,20.9-13-.13-5.38-2.72-12.7-9-12.85-7.23-.18-12.48-4.4-11.55-10.67.55-3.75-1.16-7.15.72-7.3C507.22,934.15,520.43,943.32,523.38,957.53Zm-34.05,14.78c.94-4.8.62-10,.85-14.35,5.52-1.91,14.67,2.18,12.91,9.4-1.18,4.85-5.43,5.87-9.29,6.93C492.35,974.69,488.67,975.64,489.33,972.31Zm-7-99.13c17.84-1.14,30.46,6.64,33.84,20.56,4.43,18.27-7.77,29.08-19.65,34.4-3.09,1.39-6.35,1.25-9,2-.49-4.57-5.91-13.08.94-13.79s14.09-5.24,14.21-12.28c.09-5.7-1.77-12.26-7.68-14.69a22.07,22.07,0,0,0-18.86,1.14c.81-6.39-5-9.69-6-15.81C474.3,873.47,478.35,873.44,482.33,873.18ZM460.86,814c13.58-1.21,22.8,6.72,26.86,17,5.64,14.34-1.73,27.91-10.76,34.13-3,2.08-5.64,3.77-8.29,4.34-1.66-3.37-8.85-8-2.1-12.7,5.1-3.56,10.48-12.72,4.9-19.51-2.89-3.51-6.17-6.84-10.74-8-5.57-1.39-14.3,10.05-17.2-1.18-.55-2.11-2.74-3.42-3-5.33C446.27,818.9,452.63,814.71,460.86,814Zm-35.77-46.69c10.33-3.1,20.05,1.26,22.7,9.1,8,8,5.64,27.33-2.77,34.21-2.55,2.09-8.4,9.11-10.6,4-1-2.44-5.24-6.06-1.09-8.79s7.73-8.67,6.59-14c-1.47-6.85-8.67-11.89-18.73-9.67-2.35.52-8.06,4.24-9.17,3.32-3.82-3.1-7.64-7.53-6.79-8,6.25-3.14,10.39-7.2,14.84-9.5C421.42,767.31,424.22,767.55,425.09,767.29Zm-33.62-45.14c14.32-3,22.78,5.21,26.85,14.64,4.76,11,2.56,27.91-8.23,30.56-3.19.78-4.24,4.79-7.56,6.3l-7.3-7c3.74-4.52,11.81-10.55,10.42-17.39-1.52-7.53-8.56-15-17.83-11.94-3.84,1.28-6.46,4.58-10.28,5.29-2.82-3.63-4.44-7.85-5.93-11.44C377.63,728.12,383.92,723.73,391.47,722.15ZM383,683.31c-9.84-7-11.59-26.71-3.78-37.91.47-.67-.59-2.58.27-3.16,2.18,2.17,6.84,7.94,4,13.6-3.42,6.74-5.33,15.19.27,18.54,6.42,3.84,15.15.62,19.93-3.46l7.68,5.3C406.62,683.92,391.9,689.63,383,683.31Zm55.72,30.9c-9.79,3.18-19.51,0-23.39-6.85-4.13-7.35-5.19-17.78-1.46-25.56.54-1.11,2-1.85,2.6-2.39l7.72,2.93c-5.11,8.31-4.23,20.87,4.9,23.14,5.11,1.27,10.64-2.35,12.7-8.33.72-2.11.92-12.56,9.12-8.75,1.12.52,3.88-.25,4.4-.08C456.64,702,448.77,710.93,438.68,714.21ZM323.23,421.91c-4.56,5.86-10.1,11.07-14.25,18.4-11.53-7.63-32.05-11.83-47.39-6.45-30.12-11.18-52.9-47.74-38.26-86.54,7.08-18.77,24.07-28.29,41.6-36.17,2.34-1,2.23-5.46.16-6.25-13.55-5.12-27.8-19.48-21.09-38.48,2.75-7.77,10.68-15.18,17.46-20-9.78-5.9-22.39-9.59-27.44-19.48-8.28-16.23,1.19-35.3,12.22-41.88,3.8-2.27-4.25-8.65-8.3-10.93-27.53-15.51-77.53-8.1-92.86,13.25-15.63,13.5-21.19,50.39-7.55,71.65,2.68,4.17,2.66-3.39,3.84-5.82,8.77-18,39.82-31,62.52-18.09,15.56,8.84,25.8,31.54,19.1,55-3.11,10.85-13.17,16.67-21.13,22.86,10.22,21.51-.83,45.58-16.81,53.42-14.58,7.16-36.08,2.79-42.9-8.86-6-4.48-10-13.79-15.74-17.3-6.08,17.29-25.41,26.89-46.68,23.2C62,360.31,50.49,346.52,50.41,324.57c0-14.77,7.28-22.42,13.35-30.67,1.71-2.33,2.78-5.79.05-8.62-21.66,6.79-39.65-6.3-46.95-21.15-10.57-21.5.19-46.71,17.27-53.7,6.19-2.53,14.48-3.16,21.4-6.18-1.13-5.79-8.1-6.57-14.65-10.6-13.38-8.26-18.49-38.74-4.76-54.15C43.56,124.15,71.43,117.84,88,129c3.15,2.11,6.1.46,9.94,1.51-11.24-19.6-2.41-51.09,16.21-58.29,19.47-7.53,42,.36,48.58,15.7,2,4.57,4.61,15.79,13,11.19-4.58-21,5.9-37,19.64-43.79,19.12-9.48,45.35-.57,50.82,17,2.74,8.84,2,18.75,4.74,28.08,7.34-8.24,14.35-19.86,25.93-24.21,14.3-5.38,33.6-1.22,38.82,10.89,4.49,10.44,5.92,25,1.6,35.9-.67,1.69,2.8,6.38,4.7,3.3,8.31-13.51,34.16-22.44,49.72-9.84,7,5.71,13.14,16.48,10.46,28.06-2.14,9.27-4,19.16-9.23,24.62-1.27,1.32,3.2,5.25,5.63,3.46,12.91-9.46,39-8.61,47.71,4.61,12,18.21,1.46,45.43-12.86,53.57-2.2,1.26-1,7.69,1.69,6.46,14.47-6.54,31.3,2.83,38,13.25,11.74,36-15.06,59.18-36.55,73.54-12.05,8.06-23.15,18.7-32.19,28.26,3.51-18.15,6.24-37.59,15.16-53.63,8.07-6.48,20.85-10.6,29.27-19.46,2.95-3.12,5.09-10.45.42-14.77-7.09-6.58-16.31-2.75-22.31,1.48-8.14,5.76-14.16,14.86-16.37,26.75-1.82-13.74-4.27-28-8-40,1.4-22.73,18.36-32.47,27.07-48.19,2.2-4,3.25-9.56.4-13.5-3.39-4.7-8.75-5.62-14-3.22-9.85,4.51-15.74,14.49-17.31,26.92-.81,6.39-2.3,12.91-2.17,19.52C370,220.4,360,203.37,348.13,192.19c-1-22.53,9.92-36.65,16.52-52,2.16-5-7-13.37-13.72-10.81-12.64,4.84-20.78,19.35-15.88,37.15,1.07,3.9,2.55,7.59,3.31,11.84-13.54-12.23-30.27-27.5-47.93-37.75-1.91-13.59,4-25.27,7.17-34.62,2.28-6.64-3.69-12.78-9-13.49-8-1.08-16,5.25-17,13.39-1.21,10.2,1,21.47,4.81,27.48-16-5.58-34.45-9.06-53.55-11.37-5.69-11.12.84-21.43,1.05-32.24.11-6-.21-13.27-6.68-16.3-5.77-2.72-14.49-1.6-18.1,4.45-9.21,15.45.67,35.29,11.31,43.39a276.09,276.09,0,0,0-56.67,4.84C141.27,121,139.25,103.29,137,90.71c-1.08-6-10.35-9-15.63-5.56-5.61,3.63-7.89,11.22-5.06,19.41a44.3,44.3,0,0,0,23.44,26.37c-16.31,5.9-29.27,16.6-39.26,25.39-14.33,6.54-29.1.78-34.35-6-4.86-6.27-14.35,1.14-16.94,6.74-2.75,6,1.25,11.91,6.26,15.5,8.59,6.18,20.83,4.33,32.33-.24-8.33,14-16.22,33-17.33,53.87-6.54,9.32-24.05,9.32-30.4,20.42-3,5.25-4.77,7.82-2.66,13.33,2.37,6.23,11.4,10.33,18.33,6.3S68,254.54,71.24,246.12c2.21,21.65,11.21,37.75,18.36,52.62-1.3,14.5-11.35,26.28-8.72,40.4.92,4.95,4.36,10.45,8.21,10,9.58-1.18,15.11-9.28,16.56-19.17,1.63-11.24-6-21.8-9.27-28.27,13.3,14.14,33.53,21.76,56.47,25.9,6.64,9.59,9.76,20.82,18.61,26.36,3.89,2.43,10,2.77,13.94-.91,4.84-4.51,3.91-12.56.23-17.18-4.74-5.94-12.08-10-19.9-13,13.24-2.46,24.4-7.55,31.54-15.94,14.23-16.7,14.51-52-5.85-62.82-12.31-6.55-31.21-.08-34,12-2.71,11.86,5,22.27,14.46,23.6,3.12.44,8.22,2.09,10,3.75-18.28,17.74-59.63,9.3-69.55-9.22-25.95-33.35-5.62-90,23.43-105.6,41.92-32.08,119.56-15.29,153.35,15.71-16.41-1.12-31.77,8.32-30.63,23.88.85,11.51,7.15,21.94,21,20.95a16.83,16.83,0,0,0,13.2-7.72c3.16-5,1.2-12.68-4-14.86-4.68-2-11.25-2.42-14.1,3.38-1.3,2.65-1.76,7.25,2.1,8.65,2.09.76,8,2.83,8-1.76,0-1.74,1.58-3.54-.33-5.61,2.64-.24,6.14,5.27,3.21,8.39-5,5.3-14,4.33-19-.15-6.32-5.71-6.91-17.18-.42-23.63,8.7-8.66,29.37-9.13,38.11.26C323,214,338,234.25,346,260.56c-7.38-15-43.47-23.74-58-8-13.06,6.19-18.56,34.23-5.62,44.41,6.72,9.56,32.05,11.16,39.13,1,7.15-5.34,8.3-25.74-2-28.5-5.74-5-15-3.89-19.61,2.07-3.18,4.09-4.7,11.71.84,15.12,4.18,2.58,11.42,3.1,13.47-2.5,1.22-3.31-2.54-5.76-5-6.63-3.26-1.15-5,2-7,3.62-1.14-5.67,4.46-9.14,8.43-9.32,5.24-.23,12.11,4.07,11.92,10.23s-3.88,12.36-9.29,14.71c-11.68,5.07-26.58,1.3-31-8.66-5.67-12.7,1.44-26.7,10.13-32.93,11.27-8.09,37-8.47,44.13,3.58,16.89,10.3,17.28,36.86,16.27,63.2a196.53,196.53,0,0,1-6.3,43.66c-4.89-26-23.14-45.5-52.64-44.11-24.9,1.16-42.14,15.8-46.84,37.68-5.35,24.86,6.83,41.63,23.86,47.13,21.38,6.9,44.22-4.27,46.91-23.45,2.35-16.66-6.84-30.91-23.47-32.12-10.54-.77-23,5.06-22.07,15.72.51,5.91,3.75,13.91,11.06,13.17,4.33-.44,7.13-3.53,8.46-7.27a6,6,0,0,0-3.61-7.41c-4.1-1.55-7.28,2-10.31,3.19-.32-5.61,4.45-9.16,8.86-11.24,10.05-4.76,21.9,3.09,25.12,11.7A24.34,24.34,0,0,1,301,398.36c-13.37,7.34-33.24,3.67-41.95-5.86-14.32-15.67-6.82-49.07,9.21-57.3,15.29-14.46,47.81-12.1,59.56,3.51C351.13,358.77,338.26,402.57,323.23,421.91Zm70.52-123c1.74-14.66,8.78-26.12,20.34-31.29a26.61,26.61,0,0,1,2.66-1.1c4.47-1.09,12.32,3.56,9.34,7.87-5.91,8.49-19.83,13.1-28.85,19.46C395.09,295.38,395.14,298.2,393.75,298.92Zm-11.58-64.7c-1.44-18.1,3.13-35.69,15.13-42.11a15.77,15.77,0,0,1,3.15-1.39c4-.12,8.09,4.75,6.08,9-5.1,10.85-15.42,19.63-23.57,29.4C383.87,231.35,382.15,234,382.17,234.22ZM343,175.61c-7.27-12-6.28-31.3,4.44-39.23.73-.54,2.19-.51,3.21-1.17,2.53-1.65,8.06-.58,7.88,2.31C357.63,152.81,347.14,163.48,343,175.61Zm-58.9-41.35c-7.62-6-10.9-24.78-4.1-35.46,2,.85,2.79-.67,3.67-1.35,3.37-2.62,9,1.37,8.67,4.44C291.3,112.92,284.93,122.1,284.11,134.26ZM215.4,118.67c-9-6.56-18.8-20.25-13-37.12.74-2.15,3.05-3.23,4-3.6,4.62-1.73,11.93-.56,12.48,5.48C220.16,96.73,212.87,105.44,215.4,118.67Zm-69.73,9.15a34.74,34.74,0,0,1-25.18-34c0-2.21,2.64-3,4-3.8,3.52-2.15,8.53,1.28,8.78,4.56C134.29,108,136.52,122.28,145.67,127.82ZM89.2,165.15c-3.77,4.24-29.56,10.92-34.07.22-1.09-2.59-2.42-6.37-.11-8.8.49-.52,4.1-3.77,6-2.93C67.19,156.4,75.76,166.23,89.2,165.15ZM69,232.51c-1.56,13.24-6.77,26.13-17.84,29.6-3.89,1.22-10.5-1.07-10.12-5.79.74-9.47,11-15.17,20-17.18C64.09,238.45,66.56,235.61,69,232.51Zm24.3,76.7c7.19,6.13,11.22,25.51.93,32.92-2.08,1.49-6.34,2.14-7.07-.55C83.52,328.09,89.9,318.54,93.32,309.21Zm67.34,19.25c10.18.84,19,8.59,23,16.52,1.12,2.23-2.58,7.55-6.45,6.14C169.22,348.23,164.54,337.72,160.66,328.46Zm168.48,90.81c28.53-34.78,39.82-116,19-170.12-16-41.6-48.52-68.55-87.08-88.61-45.69-23.77-124.48-16.34-148.66,22.68-23.84,23.9-25,84.35,3.15,104.58,13.89,10,47.89,17,63.93,3.82,4.46-3.66,8.66-8.86,8.91-16.17-9.28,2.26-23.7,1-25.56-7.48-1.35-6.16-.58-12.63,4.8-15.94,5-3.08,12.49-6,19-3,13.24,6.13,19.88,25.29,13.84,42.64-9,25.7-51.14,34.41-78.31,21.31-31.39-15.13-52.19-50.3-44-96.86,8.59-49,40.93-79.07,92.49-86.41,1.43-.21,5.7-.77,7.13-.9,32.34-2.81,67.34-.35,92.49,10.18,50.25,21,86.07,60.15,105.39,113.16,17.8,48.85,4.47,112.43-18.82,145.3-4,5.71-4.84,14.46-8.19,20.33C341.56,414.87,333.9,417,329.14,419.27Zm21.77,54.51c-3.49-.92-7.44,3.13-11.32,1.25-4.29-2.08-3.48-8.06-1.93-12.59a17.62,17.62,0,0,1,2.61-2.74c6.12-1.55,13.52,2.25,13.2,9.46C353.43,470.06,355.39,475,350.91,473.78Zm21.28-2.73c-4.75,1.46-8.63.08-12.78,1.88-.37-4.19-.84-8.35-2.29-10.86-4-6.95-14.53-11.26-21.5-5.31-5.47,4.65-4.85,13.32-2.42,19.27l-11.15,2.19a28.29,28.29,0,0,1,13.6-36.7c.46-.22,1.88-.65,2.35-.83,12.2-4.64,24.54,1.95,28.81,10.57C369.06,455.78,373.18,466.12,372.19,471.05Zm7.6-2.35c-2.94-8.28-6.64-19.23-11.35-25.69-1.85-2.53,1.68-9.7,2.87-14.36a9,9,0,0,1,.78-.91c3.74,5.15,4.58,13.74,7.68,20.74C382.52,454.71,377.26,461.84,379.79,468.7Zm6-70.47c-.92-2.15.65-2.92,2.4-5.1,3.39,8.51,8.9,28.36,12,39-7.72,2.18-14.14,7.2-16.62,11C374.35,431.53,373.93,407.77,385.82,398.23Zm9.3-15.84c6-7.61,10.6-14.94,17.36-22.26,6,24.39,11.62,49.87,16,75.38a29.1,29.1,0,0,0-19.79-3.7c-3,.53-2.72-3-3-4.07Zm9.29,85.07c-3.75-1.62-.28-9,3.72-10.83,2.6-1.18,9.91-1,9.76,5.18,0,1.23.15,5,.15,6.68C414,470,408.5,469.21,404.41,467.46Zm29.15,2.94-10.48-.87c.75-8.34-.66-17.16-7.67-18.36-3.13-.53-6.76-1.48-9-.15-5.72,3.5-10.44,10.14-8.14,17.7-4.61.07-9.32-.52-12.84.32-3-14.81,3.71-28.48,16.18-31.28.41-.1,1.78-.05,2.2-.18,11.95-3.71,24.18,2.28,27.92,11.32C434.28,454.94,435.88,463.14,433.56,470.4Zm-16.2-114.07a87.13,87.13,0,0,1,20.55-15.88c8,34.3,11.4,72.71,22.44,103.45-8.33,1.71-15.08,9.62-19.8,18.78ZM725.7,262.89c-1.9,21.18-16.93,35.33-28.7,48.12-52.13,56.62-106.2,111.93-167.75,159.61-11.26,5-26.87,6.06-34.4,15.09,4.43-10,4.55-26.44-2.4-33.28,49.1-28.81,88.58-68.38,132.74-103C660,322.17,692.07,292,725.7,262.89Zm-90.52,22.26c2.58-1.65,5.47-1.7,8.53-2.32,1.94-.4,7.75-2.74,9.64,2.35,3.42,9.22,1.76,19,2.58,30.21.34,4.69-8.63,9.49-14.81,13.93C638.76,314.71,636.5,299.85,635.18,285.15Zm22.4-2.18c1.47-4.18,5.89-4.13,8.64-4.82,1.46-.37,4.7-3.06,5.82.78,1.93,6.65,1.37,14.25,1.93,21.63.28,3.5-7.13,7.31-11.91,10.24C661.29,302.75,654.87,290.68,657.58,283Zm18.07-7.75c4.51-1.25,9-2,13.71-4.27,1.69,1.76,2.29,9.15,3.16,14-4.26,2.67-7.68,7.36-12.22,11.21C678.07,289.46,677.25,281.89,675.65,275.22Zm33.66-5.46c-4.89,4.63-10,7.28-12.33,11.06-.12-4-6.26-10.93-.18-11.83,3.78-.55,7.46-1.25,11-1.95.35-.07,1.37-1.28,1.93-1.53C719.17,261.23,709,269.76,709.31,269.76Zm10.75,54.84-27.64.79c3.06-5.06,7.44-11.91,13.06-15.29,3.75-2.26,9.61-2,13.43.24S719.52,319.15,720.06,324.6ZM582.58,555c1.23-8.89-.81-17.33-5.7-23.36L632.73,543l-21.28,17.15Zm23.11,9.21c-7.63,5.6-17.76,9.32-27.45,14.06-3.07,1.5-10.82-2.79-15.11-4.78,7.29-2.94,13.69-7.18,17.89-13.11C589.51,560.93,599.88,561,605.69,564.21ZM558.8,521.32a60.15,60.15,0,0,0-25.35,6.06c5.75-7.06,10.56-13.18,13.08-21,.37-1.17,0-5.41,0-6.71,33.09,8.54,71.72,13.44,109.73,18.41l-19.51,20.82C610.92,533.3,582,528.91,558.8,521.32Zm-13.28-27.24c-2.19-8.7-10.75-13.58-18.34-16.91,3.06-2.83,8-7.27,10.72-6.73,43.24,8.55,87.65,16.07,135.58,21.05-3.13,6.94-8.4,14.79-13.77,22.44C621.64,508.42,580.42,503.51,545.52,494.08Zm-1.31-28.48c4.33-4.72,15.14-11.85,20.94-16.38,38.29,6.47,79.54,11.27,121.5,15.28L676.47,487C630.55,482.45,588,473.75,544.21,465.6Zm27.22-21.16,22.66-23.31c33.06,5.48,68.79,7.51,104.63,10.21C697,440.59,692.47,450.57,689,460,648.33,455.92,607.66,451.92,571.43,444.44Zm29-27.58a147.7,147.7,0,0,1,22.43-21.37c25.54,3.93,55.66,4.64,85.34,4a177.48,177.48,0,0,1-7.79,27.2C667.11,424.34,632.61,421.57,600.43,416.86Zm26-25.92a181.86,181.86,0,0,0,23.84-23.56l64.21.3c-.42,8.1-3.36,18.67-4.79,27C681.73,396.18,654.25,393.65,626.45,390.94Zm29.84-28.49c4.91-5.58,9.29-11.11,14.78-15.58.86-.69,2.88-.13,4.24-.16,14-.29,26.76-1.48,41.73-.92a32.49,32.49,0,0,1-1.71,16.35C696.11,362.68,675,363.48,656.29,362.45Zm54-20.35c-11.59-1-22.36.34-34.86-.39,4.22-4.2,8-11.91,12-11.93l30.89-.13C719.24,335.12,719.33,342.91,710.32,342.1ZM710,304.53c4.89-4.66,8.34-10.51,12.21-16.68l-.66,16.24C718.24,303.1,714.47,305.08,710,304.53ZM619.77,345.8,611,288.58c3.22-.14,6.64-.61,10.08-1.09a46.25,46.25,0,0,0,9-1.6c2.79,15.2,3.1,31.49,4.74,47.36C635.26,337.37,625.58,343.08,619.77,345.8ZM615,350l-21.66,17.8-11.82-72.22c5.85-2.18,12.23-2.5,18.15-4.17,2.45-.68,4.76-.81,6.25-1.18C609.44,309.63,612.65,329.69,615,350Zm-26,21.38c-6.5,5.06-13.5,12.71-20.39,16.85l-13.34-87.63c5-.79,9.8-1.78,16-3.1,1.22-.26,5-2.24,5.1-1.54Zm-25.23,22L544,409.09c-6.87-32.45-11.88-67-17.06-101.1,5.67-2.74,13.06-3,19.65-5.29,1.17-.41,3.46-1.67,4.22,2.18C556.22,332.49,559.65,363.17,563.74,393.45ZM539.37,413c-7.21,6.16-15.15,11.23-23.08,16-6.08-38.26-10.19-79.53-17.13-116.42l23-4.37C527.08,343.32,532.41,379.9,539.37,413Zm-29.68,20.3c.62,3.73-10.68,7.15-17.65,12.87L472.8,322l21.28-7.39C502,351.73,503.27,394.76,509.69,433.29Zm-23.23,13.09c-5.17-4.47-14.76-3.64-23.54-4.23L442.8,337.58l21.41-11.29c2.66-1.64,3.84-.27,4.14,1.69ZM476.16,476c-.31,2.43-2.41,5.58-3.13,7.77-4.73-1-9.81-3.48-14.76-6.35,0-5.62,5.84-10.5,10.62-11.2S476.72,471.79,476.16,476Zm9.11,14.25c-.89,1.22-4.89-2.7-8.14-4.44,4.91-7.16,5.63-19.46-2.69-23.28-2.63-1.21-6.3-2.5-8.68-1.06-6.34,3.83-10.06,10.14-12.74,15.22l-10.79-4.48c2.7-9.95,9.47-19,18.62-22.28.88-.31,3.45-1.33,4.37-1.57,11.66-3,22,3.34,25.43,11.51C495,470.28,491,482.42,485.27,490.28Zm41.06,36.52-20.91-22.86c3.67-3.81,8.4-7.95,12.86-5.78a6.64,6.64,0,0,1,3.68,7.5c-.89,3.64-4.7,5.65-4.91,8a3,3,0,0,0,5.05,2.27,17,17,0,0,0,1.34-20.6c-2.63-4-10.75-3.16-15.64.91-2.11,1.77-5,3-5.89,5-3-2-12.22-5.27-5.49-10.31,4.94-3.7,9.26-7.9,14.3-9,13-2.75,24.7,3.09,28.3,12.5C544.81,509.59,534,519.87,526.33,526.8Zm6.3,7.27c-.49-2.16,7.26-4.22,11.54-5.14.21,0,.48-.12.7-.17l-.26.09c14.78-4.6,28.2.68,30.71,11,1.19,4.94,3.18,11.44.46,16.59-4.23,8-13.36,15.2-26.3,16.21-1.33-2.66-2.89-5.75-2.36-8.57,8.31,1.26,18.79-5.89,17.1-14.08-1.06-5.12-6.51-11.15-10.84-9.85C545.52,542.52,534.84,543.71,532.63,534.07Zm8.24,12.33c.9-.18,3.32-.51,4.09-.77,5.08-1.71,13.29-.41,13.8,5.73.62,7.57-7.09,6.55-13.15,8.09C544.29,557.22,543,550.44,540.87,546.4ZM533.5,646c5.66,1.74,9.47,7.86,10.3,13.47.78,5.26-5.86,6.33-9.49,5.44s-8.41-4.1-10.2-8.23C528.38,653.94,530.61,649.72,533.5,646Zm-39.8,35.19c3.51-.54,4.91,4.94,5.16,8.33a9.17,9.17,0,0,1-7,9.31c-3.83,1-10.19,1.69-11.42-4.16-.65-3.12-1.87-6.26-2.19-9.5C483.77,685.37,488.36,682,493.7,681.17Zm14.55,28c-9,10.41-31.83,11-37.65-2.51-2.36-5.47-6.46-12.18-4.86-19.21,2.52,0,5.42.67,8.36-1.13.58,6.58.81,15.84,8.91,17.89,6.11,1.54,12.94-.57,17.61-5.06,5.64-5.42,1.14-16.28.29-22.67l7.31-4.72C516.56,679.43,520.21,703.29,508.25,709.18Zm55.21-52.54c.95,11.61-8.74,19.67-18.47,22-14.69,3.45-26.68-5.19-31.65-12,3.74-2.51,7-7.22,8-5.26,2.94,5.73,11.46,12.62,19.65,8.3,3.92-2.07,9.61-5.34,7.91-11.23-1.8-6.21-5.58-12.92-11.69-16.21.67-3.25,2.83-6.27,4.3-9.24C554.19,634.42,562.4,643.78,563.46,656.64Zm13.65-37.95c-8.09,5.44-19,10.09-32.51,7.73,1.1-4,4.4-7.48,4.43-13.26,8.77,3.44,20.71,1.84,22.26-6.61,1-5.52-.31-13.9-7.16-15.9-3.89-1.14-8.78.54-11.67-1.5-2.52-1.78-1.67-6.32-2.56-9.7.05,0,.42-.81.9-.86a44.93,44.93,0,0,1,25.07,5.55C584.09,593,587.29,611.84,577.11,618.69Zm-25.34-24c5.08.13,15.17-1.26,15.56,6.86.19,3.93-2.37,8.62-6.52,8.65-3.3,0-7.21.14-10.54-1.69a75.42,75.42,0,0,0,1-13.24C551.27,595.11,551.92,594.74,551.77,594.73Zm150-114.54C675.15,528.14,638,567.12,589.5,593.9c-2.82-2.51-4.36-7.28-6.06-11.36,39.49-17.67,68.82-46.29,90.95-81.51,36.38-57.92,50-136.9,56.08-224.07.43-6.24,2.71-12.58,1.2-18-.77-2.77-3.27-5.22-6.71-4.09-68.22,22.66-145.34,33.49-219.49,50.83-66,15.42-114.94,52.91-136.94,113.83-2.31,6.43-3.49,14.19-5,20-3.66-3.18-7.94-4.41-12.5-6.2,12.16-61.14,50.63-96.29,97.73-122.6,38.27-21.37,88.45-30.22,136.67-41.25,50.43-11.54,102.55-21.3,153-33.9,1.08-.26,3.82-1.31,4.08,1.76C750.52,331.93,736.1,418.27,701.75,480.19Z" transform="translate(-0.12 -46)"/><path class="cls-1" d="M527,566.24c-20.92-53.08-72-85.45-147.53-79-.24,0-.9-.06-1.12,0-37.51,3.26-68,14-97.05,26.41-79.45,33.9-139.55,89.09-187.08,155.62C70.68,710.34,53.55,757.55,43,812c-14.31,74.09-7.76,167.4,23.58,218.76,10.46,17.13,21.81,33.57,35,48.2h8.46c-2.54-3.06-5-6.06-7.59-8.72,17-36.43,46.88-58.88,81.3-77.51,29.94-16.2,68.67-24.61,109-31,1.34-.22,5.27-1.52,6.59-1.54,60.15-.68,107.89,15.63,144,40.24-2,13-5.95,24.09-10.38,35.42-62.38-55.94-199.78-41.33-255.24,11-14.17,8.34-25.18,19.42-34.87,32.09h7.4l4.65-5.75,6.35,5.75H169c-3.14-3.06-6.25-6.19-9.35-9.25a25.92,25.92,0,0,1,10.79-10.34c6,5.65,11.72,12.58,17.28,19.59h6.74A256.56,256.56,0,0,1,175,1056.63c2.07-3.75,7.2-5.11,11-8.56,5.68,7.8,13.19,19.77,20,26.12l-6.57,4.81h9.65a160.51,160.51,0,0,1,45.71-22.54c18.05-5.69,35.89-10.82,56.19-11.09,7.21-.1,15-1.37,22.44-.85,32.5,2.26,59.05,10.39,77.22,28a70.07,70.07,0,0,1-3.91,6.43h9.08c18.76-26.13,31.4-58.42,37.34-96.62,9.88-63.47-12.78-112.06-35.85-151-19.22-32.47-47-57.37-63.81-92.29-31.5-42.5-35.27-125.86-.07-167.26C368.76,541.28,427.74,520,463.26,546c18.59,8.74,29.83,38.95,16.77,60.61-.44-6-1.33-13.1-3.58-19.34C470.06,569.52,444.92,560,422,567.64c-21.85,7.29-34.2,41.17-22.27,66.34,11.85,25,54.43,37.18,86.64,24.18C517.48,645.61,538.92,609.49,527,566.24ZM209.24,1071.72,191,1046.8c-1.1-1.7,6.68-5.89,11.76-8.75,5.94,6.87,11.25,19.21,16.36,27.31C215.16,1067.2,209.86,1072.49,209.24,1071.72Zm14.28-9.16c-5.67-8.39-10.33-18.35-15.4-27.64,3.34-3.37,8.63-2.93,12.39-7.54,5.31,8.28,8.42,20.47,13.83,30C233.15,1059.17,227.8,1061.41,223.52,1062.56Zm16-6.83A177.37,177.37,0,0,1,227,1026c-.87-2.81,5.88-4.79,11.17-5.58,4.49,7.67,7.22,19.91,10,30.72C245.17,1052.29,242.86,1055,239.49,1055.73Zm12.31-10.44L243.4,1018c-.41-1.31,4.47-1.44,7.22-2.84,1.22-.61,4.26-1,5,1.15,3.45,10.23,3.72,22.64,6.57,30.86C260.4,1047.46,254.44,1053.31,251.8,1045.29Zm15.63.09-8.63-32.48c4.25.17,6-1.9,9.11-1.49.67.09,3.87-2.43,4.89.88,3.12,10.12,3,20.92,5.93,31C275.29,1044.6,268,1047.4,267.43,1045.38Zm16.79-2.25a163.64,163.64,0,0,1-6.82-33.87c3.36-2,7.36-1.23,10.48-2.18,2.08-.64,3.6,1.21,3.83,2.84l4.45,30.62C292,1040.46,288.21,1041.93,284.22,1043.13Zm17.32-3.26c-1.88-10.76-4.62-21.3-4.87-33.46a18.07,18.07,0,0,0,3.17-.47c3.36-1.54,6.72-.21,10.29-1,1.95,10,2,22.15,2.52,33.94Zm26-2.06c-2.74,1.36-10.08,2.62-10.17-.09L315.48,1006c4-.76,13.95-4.32,13.67,3.29Zm17.35,1.84c-4.49-.82-12.42.55-12.09-1.57,1.59-10.31-.07-21,.79-30.56a2.21,2.21,0,0,1,1.21-1.59,89.76,89.76,0,0,1,13.84,1.12C348.1,1018.22,345.91,1029.31,344.92,1039.65Zm4.69.53,3-28.19c0-.3.84-1.15,1.11-1.74,1.39-3,8,0,12.18.43L362,1040.61C361.43,1045,354,1039.86,349.61,1040.18Zm15.93,3.58,5.85-32.13,15.46,4.52c-2.53,10.36-6.76,20.3-10.39,29.78C373.25,1044.24,369.31,1044.21,365.54,1043.76Zm15.64,2.67,9.73-27.83c4.74,1.93,10.56,4.45,13.59,7.1-5,8.94-7.24,19.19-11.8,27.83C388.56,1051,380.06,1049.64,381.18,1046.43Zm15,9.52c5-9,7.05-19.47,12.27-28.74,3.28,2,7.07,3.57,10.51,6.58-3.43,9.32-8.29,18.79-12.73,27.9C402.14,1060.78,399.55,1057.45,396.21,1056Zm33-10.47c-3.59,8-9.67,17.17-15.32,22.68-1.6-1.86-4.77-2.66-3.41-5.44l12.59-26.4C425.26,1038.25,431.91,1039.44,429.2,1045.48ZM97.87,1065.27c-11.07-10.82-18.57-24.09-25.83-36,3.13-5.63,4-14.67,11.31-16.82,1-.3,1.93-2.48,3.67-2.48,17.08,0,26,9,36.93,17.43C115.07,1038.82,105.39,1051,97.87,1065.27Zm31.07-42.63c-11.29-8.46-23.44-27-15.86-44.79,2.24-5.24,7.51-8.91,13.22-8,16.76,2.7,30.91,12.76,37.79,28.31C151.09,1005.43,138.81,1013.24,128.94,1022.64ZM91.7,844.6c8.47-16.45,26.39-26,52.06-27-7,3.84-26.62,11.23-31.88,20.41-24.53,42.86-3.18,103.78,31.77,118.93a18.21,18.21,0,0,1,10.79,18.9c-8.79-8.07-21.86-12.12-38.41-13.68C90,938.66,70.56,885.66,91.7,844.6Zm118.78,131c-14.09,5.39-27.1,10.83-39.1,17.56-9.71-10.26-16.79-28.25-12.81-44.17.93-3.72,5-5.16,7-6.76.31-.24,1.55-.22,1.91-.36,11.87-4.63,21.13,1.75,26.73,8,6.07,6.79,9.83,15.52,15,23.9C212,971,212.19,975,210.48,975.62Zm8-3.65c-7.8-10.88-17.33-31.28-8.37-46.29,2.92-4.9,7.5-10,14.4-10.67,17.87-1.82,23.53,14.07,28,26.38a129.3,129.3,0,0,1,5.46,21C242.8,963.65,230.41,967.92,218.49,972Zm49.81-11.75c-5.33-14.93-5.85-36.58,1.9-49,2.42-3.87,5.44-5.27,9.41-6.83,8.72-3.43,15,3.8,18.44,9.07,6.86,10.48,8.45,26.28,10.45,40.28C294.74,954.38,281.55,957.25,268.3,960.22Zm42.92-22.81c-2.54-17.19-9.68-35.18-24.6-40.42-16.12.33-24.19,12-26.21,26.11-1,7-.63,15.23-1,22.25-3.07-15.38-11.54-31.48-25.88-36.71,17-11.82,38.73-18.88,51.94-33.61,2.71-3,6.39-12.49.82-13.62-14.31-2.91-23.6,6.56-31.82,14s-15,17.54-20.91,24.41c-10.16-13.13-3.65-32.76,10.9-36.59,10.18-9.53,21.17-17.4,29.48-28.24,2.45-3.19,3-8,.61-11-2.93-3.73-7.86-2.38-10.91-.69-17.43,9.66-29.07,27.41-37.45,48a521.61,521.61,0,0,1-7.55-52.86c13.8-17.23,30.13-32.24,43.79-50.07,3.45-4.49,4.28-12.37-.19-15.07-5.87-3.54-12.77,0-17,4.19-12.08,11.9-20.43,28.07-25.68,47.67-.38,1.42-1.77,1.28-1.77-.31A266.31,266.31,0,0,0,216,771.19c9.19-15.23,23-26.53,34.78-39.48,4.07-4.44,5.08-16.57-.88-16.4-16.73.47-24.85,14.4-28.66,28.76-1,3.86-4.82,6.47-4.94,10.91-4.95-51.07,14.11-81.81,25.9-117.87,3.51-10.77,3.11-21.82-4.23-28.42-2.35-2.11-6.16-.58-8.7.5-11.89,5.09-13.28,20.87-15.68,34.07-6.63,36.36-1.45,75.33-3.4,115.39-9.78-11.35-20.89-21.7-37.72-24.21-3.87-.57-7.71,5.66-5.71,8.75,8.1,12.51,23.93,21.53,44,23,.34,12.6,1.71,24.41,1,38.41-10.75-13.36-22.22-27.34-42.79-29.42-4.35-.44-11.67,2.79-9.49,8.13,3.79,9.3,13.22,13.42,22.24,17.33L212,811c1.95,15.72,3.6,35.61,7.23,52.85-15-10-31-21.27-53.44-21.58-4.26-.05-9.16,2.1-10.68,6.81-1.63,5.08,4,8.92,9.06,11.17,13.46,6,31.82,7.83,50.81,8.19,2.15.05,5.19.84,5.45,3.32,1,9.82,3.44,19.31,6,28.9C206.59,890.31,185,877.05,157.09,880c-4.83.5-13.11,2.46-11.44,8.88,2.29,8.81,12.32,13,22.54,13.37,18.62.58,36.8,1.08,54.09,3.27,1.87.24,5.69.85,6.38,4.34-16.31,1.09-28.51,12.25-27.87,28.91.15,3.95,1.77,8.76.76,13-6.14-12.36-21.27-21.12-37.36-14.67-6.52,2.62-11.3,11.11-12.08,17.76-35.14-13.23-59.9-69.54-35.54-112.38,7-12.26,22.11-19,38.35-22.1,3.62-.68,2.07-7.51-.62-12.45-9.75-17.88-20-49.65-8.37-72.43,7.22-14.17,25.41-27.83,46.65-20.88,3.89,1.27,1.12-7.06-.38-9.74-20.61-36.67-5-88,25.18-104.88l39.32-28.72c5,18.79,12.54,39.91,15.64,60,4.47,29.08-4.82,54.39-17.18,73.55,5.24,6.79,17.63,8,26.64,14.18,15.89,21,10.47,64.48-2.59,87.62-1.45,2.58,4.77,5.88,8.7,5.27,23.31-3.57,43.63,10.16,49.6,28.76a64,64,0,0,1,3.33,19.83c-.23,26-16.62,42-26.37,58.71C311.43,924.4,312.17,931.63,311.22,937.41ZM144,800c-20.65-13.09-32.88-57.34-13.73-80.91,5.48-6.73,13.47-11.82,22.3-14.84a31.53,31.53,0,0,1,3.67-.58c9.85-1.21,19.54.36,26.78,4.74-27.2,2.06-45.27,18.11-47.33,43.69C134.27,770.21,139,786,144,800Zm139.6-86.93c-5.49-5.32-12.73-4.49-19.23-8.24,3.48-2.12,7-1.75,10.32-2.19,16.75-2.22,29.42,5.41,33.72,17.58,8.85,25-4.65,50-15.67,66.13C300.78,763.62,298.54,727.56,283.64,713.1ZM295.49,807c6-3.88,12.53-4.66,18.41-5.86,25.59-5.26,39.07,10.88,45.31,27.74,8.91,24.1-.65,52.7-11.8,68.48-2,2.75-8.58.62-12.92,2.15,14.66-18.52,17.8-63.27-2-79.33C323.6,813,312.2,807,295.49,807Zm66.78,153.81c-12.93-3.74-30-5.72-45.24-6.15-1-17.67,1.24-35.92,10.23-46.4,2.78-3.25,7.72-2.69,11.51-3.55,3.21-.71,6.49-2.3,10.24.17,12.17,8,16.71,32.1,10.88,51.34C359.49,957.6,363.57,958.21,362.27,960.84Zm45.91,14.38C396,969,382.6,963.78,367.47,961.64c.52-20.12,8.93-34.25,20.89-39.6,2.52-1.13,4.67-.48,5.16-.71,5.51-2.59,11.57.86,15.24,5C418.88,937.71,413.26,962.13,408.18,975.22Zm36.67,19.66L416,978.57c2.51-14.49,10.16-23.88,18.93-31.75a8.46,8.46,0,0,1,1.39-1.05c4-1.86,11.4-2.09,11.67-.08C450.15,962.22,448.92,980.94,444.85,994.88ZM487.12,650.7c-25.69,14.44-66.95,5.65-79.88-14.57-11.88-18.6-5.89-51.44,11.11-61.27,15.69-9.07,43.23-4.12,51.3,9.32,5,8.27,7.23,21.36,5.39,33.15-.29,1.9,3.49,3,5.19,1.18,16.9-18.52,14.63-59-5.82-71.81-27.94-30.22-97.24-17.72-116.87,10.94-42.33,38-46.4,136.7-9.74,183.89,15.44,30.59,37.59,53.65,56.29,80.92,22.18,32.37,39.77,68.83,45.55,117.7-9.43-4.6-18.59.48-22.4,6.84-2.34,3.91-6.78,6.64-9.36,10.23C423,940.43,417,923,405.18,916c-18.51-3.64-33.69,7.36-37.84,22.23,1-16.57-5-28.57-13.81-37.59,14.28-20.22,22.19-62.16,6.67-87.63-12.45-20.42-51.77-24-72.17-9.07,17-20.36,36.32-52,25.14-88.32-4.79-15.56-28.37-24.06-48.47-15.81,20.54-32.49,15.62-84.76.7-117.7-2.34-5.14-3.37-10.66-6.42-18.2a327.9,327.9,0,0,0-33.56,23.68c-36.68,14.4-64.13,69.34-38.47,116.68C162,691.54,132.66,702.43,122.8,720c-17.32,30.85-2.84,74.65,20.35,88.41,8.2,4.86-4.83,3.72-6.26,3.88-31.95,3.51-51.9,21.27-57.72,50.79-9.08,46.1,12.06,81.66,34.39,104.32-3.82,3.73-6.87,8.37-7.47,14.08a57.17,57.17,0,0,0,5.25,29.88c-8.89-9.7-33.52-8.65-39,2.82-1.41,3-2,5.77-3.31,10.69C51.52,991.7,41.37,948,41.16,903.3c-.52-115.87,30.92-205.86,86.21-268.51,33.16-37.57,70.12-70.16,114.69-96.57,36-21.35,77.35-37.16,125.75-45.72,2-.35,8.09-.15,10.13-.37,72.21-7.6,121.65,22.71,141.33,71.62C534.24,601,517.14,640.85,487.12,650.7ZM354.42,1074a18.64,18.64,0,0,0-11.34,5h18.6A16.41,16.41,0,0,0,354.42,1074Zm-33.68-4c-3.92.87-6.91,4.48-8.69,9H318a11.24,11.24,0,0,1,1.7-2c.17-.16.75-.54.89-.71,2.58-3,6.86-.8,8.32,1.67.21.35.4.7.57,1.06h5.84C332.91,1073,327.19,1068.6,320.74,1070Zm-27.23-1.84c-5.45,1-10.67,4.36-10.33,10.82h4.94a15.16,15.16,0,0,1,1.91-4c1-1.43,3.49-2.83,5-2.48,3,.71,5.28,3.22,7,6.51h5.67C304.84,1072.87,300.05,1067,293.51,1068.18ZM264,1076.45a8.28,8.28,0,0,0-4.31,2.55h14.92A12.51,12.51,0,0,0,264,1076.45Z" transform="translate(-0.12 -46)"/></svg>